<svg width="11" height="11" viewBox="0 0 11 11" fill="none" xmlns="http://www.w3.org/2000/svg">
<g clip-path="url(#clip0_8077_338)">
<path d="M5.49999 8.70825C5.59064 8.70825 5.67925 8.68137 5.75463 8.63101C5.83 8.58065 5.88874 8.50906 5.92343 8.42532C5.95812 8.34157 5.9672 8.24941 5.94952 8.1605C5.93183 8.07159 5.88818 7.98993 5.82408 7.92583C5.75998 7.86173 5.67831 7.81808 5.58941 7.80039C5.5005 7.78271 5.40834 7.79178 5.32459 7.82647C5.24084 7.86116 5.16926 7.91991 5.1189 7.99528C5.06854 8.07066 5.04166 8.15927 5.04166 8.24992C5.04166 8.37148 5.08994 8.48806 5.1759 8.57401C5.26185 8.65996 5.37843 8.70825 5.49999 8.70825ZM7.79166 8.70825C7.88231 8.70825 7.97092 8.68137 8.04629 8.63101C8.12167 8.58065 8.18041 8.50906 8.2151 8.42532C8.24979 8.34157 8.25887 8.24941 8.24118 8.1605C8.2235 8.07159 8.17985 7.98993 8.11575 7.92583C8.05165 7.86173 7.96998 7.81808 7.88107 7.80039C7.79217 7.78271 7.70001 7.79178 7.61626 7.82647C7.53251 7.86116 7.46093 7.91991 7.41057 7.99528C7.3602 8.07066 7.33332 8.15927 7.33332 8.24992C7.33332 8.37148 7.38161 8.48806 7.46757 8.57401C7.55352 8.65996 7.6701 8.70825 7.79166 8.70825ZM7.79166 6.87492C7.88231 6.87492 7.97092 6.84804 8.04629 6.79768C8.12167 6.74731 8.18041 6.67573 8.2151 6.59198C8.24979 6.50823 8.25887 6.41608 8.24118 6.32717C8.2235 6.23826 8.17985 6.15659 8.11575 6.0925C8.05165 6.0284 7.96998 5.98474 7.88107 5.96706C7.79217 5.94937 7.70001 5.95845 7.61626 5.99314C7.53251 6.02783 7.46093 6.08658 7.41057 6.16195C7.3602 6.23732 7.33332 6.32594 7.33332 6.41659C7.33332 6.53814 7.38161 6.65472 7.46757 6.74068C7.55352 6.82663 7.6701 6.87492 7.79166 6.87492ZM5.49999 6.87492C5.59064 6.87492 5.67925 6.84804 5.75463 6.79768C5.83 6.74731 5.88874 6.67573 5.92343 6.59198C5.95812 6.50823 5.9672 6.41608 5.94952 6.32717C5.93183 6.23826 5.88818 6.15659 5.82408 6.0925C5.75998 6.0284 5.67831 5.98474 5.58941 5.96706C5.5005 5.94937 5.40834 5.95845 5.32459 5.99314C5.24084 6.02783 5.16926 6.08658 5.1189 6.16195C5.06854 6.23732 5.04166 6.32594 5.04166 6.41659C5.04166 6.53814 5.08994 6.65472 5.1759 6.74068C5.26185 6.82663 5.37843 6.87492 5.49999 6.87492ZM8.70832 1.37492H8.24999V0.916585C8.24999 0.795028 8.2017 0.678449 8.11575 0.592495C8.02979 0.50654 7.91321 0.458252 7.79166 0.458252C7.6701 0.458252 7.55352 0.50654 7.46757 0.592495C7.38161 0.678449 7.33332 0.795028 7.33332 0.916585V1.37492H3.66666V0.916585C3.66666 0.795028 3.61837 0.678449 3.53241 0.592495C3.44646 0.50654 3.32988 0.458252 3.20832 0.458252C3.08677 0.458252 2.97019 0.50654 2.88423 0.592495C2.79828 0.678449 2.74999 0.795028 2.74999 0.916585V1.37492H2.29166C1.92698 1.37492 1.57725 1.51978 1.31938 1.77765C1.06152 2.03551 0.916656 2.38525 0.916656 2.74992V9.16659C0.916656 9.53126 1.06152 9.881 1.31938 10.1389C1.57725 10.3967 1.92698 10.5416 2.29166 10.5416H8.70832C9.073 10.5416 9.42273 10.3967 9.68059 10.1389C9.93846 9.881 10.0833 9.53126 10.0833 9.16659V2.74992C10.0833 2.38525 9.93846 2.03551 9.68059 1.77765C9.42273 1.51978 9.073 1.37492 8.70832 1.37492ZM9.16666 9.16659C9.16666 9.28814 9.11837 9.40472 9.03241 9.49068C8.94646 9.57663 8.82988 9.62492 8.70832 9.62492H2.29166C2.1701 9.62492 2.05352 9.57663 1.96757 9.49068C1.88161 9.40472 1.83332 9.28814 1.83332 9.16659V5.04159H9.16666V9.16659ZM9.16666 4.12492H1.83332V2.74992C1.83332 2.62836 1.88161 2.51178 1.96757 2.42583C2.05352 2.33987 2.1701 2.29159 2.29166 2.29159H2.74999V2.74992C2.74999 2.87148 2.79828 2.98806 2.88423 3.07401C2.97019 3.15996 3.08677 3.20825 3.20832 3.20825C3.32988 3.20825 3.44646 3.15996 3.53241 3.07401C3.61837 2.98806 3.66666 2.87148 3.66666 2.74992V2.29159H7.33332V2.74992C7.33332 2.87148 7.38161 2.98806 7.46757 3.07401C7.55352 3.15996 7.6701 3.20825 7.79166 3.20825C7.91321 3.20825 8.02979 3.15996 8.11575 3.07401C8.2017 2.98806 8.24999 2.87148 8.24999 2.74992V2.29159H8.70832C8.82988 2.29159 8.94646 2.33987 9.03241 2.42583C9.11837 2.51178 9.16666 2.62836 9.16666 2.74992V4.12492ZM3.20832 6.87492C3.29897 6.87492 3.38759 6.84804 3.46296 6.79768C3.53833 6.74731 3.59708 6.67573 3.63177 6.59198C3.66646 6.50823 3.67553 6.41608 3.65785 6.32717C3.64016 6.23826 3.59651 6.15659 3.53241 6.0925C3.46831 6.0284 3.38665 5.98474 3.29774 5.96706C3.20883 5.94937 3.11668 5.95845 3.03293 5.99314C2.94918 6.02783 2.8776 6.08658 2.82723 6.16195C2.77687 6.23732 2.74999 6.32594 2.74999 6.41659C2.74999 6.53814 2.79828 6.65472 2.88423 6.74068C2.97019 6.82663 3.08677 6.87492 3.20832 6.87492ZM3.20832 8.70825C3.29897 8.70825 3.38759 8.68137 3.46296 8.63101C3.53833 8.58065 3.59708 8.50906 3.63177 8.42532C3.66646 8.34157 3.67553 8.24941 3.65785 8.1605C3.64016 8.07159 3.59651 7.98993 3.53241 7.92583C3.46831 7.86173 3.38665 7.81808 3.29774 7.80039C3.20883 7.78271 3.11668 7.79178 3.03293 7.82647C2.94918 7.86116 2.8776 7.91991 2.82723 7.99528C2.77687 8.07066 2.74999 8.15927 2.74999 8.24992C2.74999 8.37148 2.79828 8.48806 2.88423 8.57401C2.97019 8.65996 3.08677 8.70825 3.20832 8.70825Z" fill="#FFA454"/>
</g>
<defs>
<clipPath id="clip0_8077_338">
<rect width="11" height="11" fill="white"/>
</clipPath>
</defs>
</svg>
